<svg xmlns="http://www.w3.org/2000/svg" width="112" height="63" viewBox="0 0 112 63" fill="none">
<path fill-rule="evenodd" clip-rule="evenodd" d="M44.2919 4.21812C44.3721 8.30478 49.1398 14.8755 52.3851 13.6335C53.7874 13.0726 53.7874 12.4716 52.2649 8.10446C48.619 -2.27246 44.2118 0.932765 44.2919 4.21812ZM70.7351 13.4732C69.6132 16.6384 73.4996 17.1993 76.1839 14.2745C78.9084 11.2696 81.8332 6.7823 83.3957 3.73734C85.1185 0.812568 81.753 -0.669849 78.9484 1.73407C75.623 4.53864 71.4963 11.2696 70.7351 13.4732ZM15.525 11.0292C13.041 12.0309 21.3746 22.3677 24.7401 22.4478C28.6665 22.528 28.987 21.6465 26.2625 18.0006C21.9756 12.2312 18.3697 9.86733 15.525 11.0292ZM53.1864 25.8935C51.704 27.3759 49.9412 29.4192 49.26 30.3808C43.4105 39.115 43.3304 39.1951 40.646 37.1518C34.4359 32.5042 24.2192 29.3391 26.2225 37.4323C27.4645 42.3202 31.1505 51.2548 32.1121 54.2196C34.5961 62.0324 35.9183 63.3145 40.3255 62.2728C51.2633 59.6285 66.8888 59.5483 78.067 62.0725C80.8315 62.7135 80.9918 62.393 81.2722 56.8239C81.8331 45.5655 88.3237 34.5876 88.3237 31.0619C88.3237 27.0954 80.8315 30.0603 70.6549 38.0333L69.6132 38.8346L68.1308 37.8329C65.0858 35.7896 63.5634 37.3922 65.2862 40.7978C66.6885 43.5623 67.8503 44.4838 70.9354 43.0014C72.6983 42.16 75.1422 40.5574 78.5879 38.1134C79.9501 37.1518 81.0719 36.4707 81.0719 36.5909C81.0719 37.1518 78.6279 47.6489 78.6279 47.689L72.538 47.1681C67.6901 46.9678 67.1292 49.532 72.1373 50.2932C72.6582 50.3734 77.7866 51.0144 77.7866 51.0144C77.7866 51.0144 77.5862 53.2581 77.0253 54.5402C76.4243 55.8223 75.4227 56.1428 73.78 55.5819C60.919 51.3349 39.9649 56.5034 39.9248 56.5034C39.1636 56.6236 32.1922 38.2336 32.7531 37.6727C32.8333 37.5925 33.6746 38.1134 34.6362 38.8346C45.4939 46.7274 46.6157 46.487 53.7874 34.9883L57.1529 29.5795L58.4751 31.5427C62.3213 37.272 67.7702 34.7479 64.7253 30.541C63.6836 29.1388 61.9608 27.0554 59.1962 23.8101C57.9542 22.3276 56.1112 22.9687 53.1864 25.8935ZM105.311 25.2925C103.869 26.1339 96.3368 33.3456 95.4554 34.7078C93.5723 37.7127 97.4987 38.3938 101.064 35.6694C105.231 32.5042 111.121 27.0554 111.121 26.3342C111.161 24.8918 107.275 24.1707 105.311 25.2925ZM6.06962 44.4838C11.9192 45.9261 15.2846 46.2867 16.6068 45.5655C18.7703 44.4036 17.7687 43.5623 12.6403 42.2802C12.1595 42.16 7.43184 40.8378 4.18655 40.8378C1.86276 40.8378 -3.30567 42.1199 6.06962 44.4838Z" fill="#b4ff52"/>
</svg>