<svg xmlns="http://www.w3.org/2000/svg" width="111" height="112" viewBox="0 0 111 112" fill="none">
<path fill-rule="evenodd" clip-rule="evenodd" d="M53.1401 16.3209C53.9224 27.9736 57.662 69.5413 57.4879 73.3679C56.5314 95.2821 42.0956 109.978 26.1822 101.804C6.52868 91.7167 17.4861 57.8015 39.1397 61.6281C47.5746 63.1064 48.5311 60.0628 40.2697 58.1492C12.0947 51.6272 -10.8636 88.4989 10.3547 106.326C18.442 113.196 43.4868 110.935 57.3137 102.065C69.4017 94.3256 72.1848 85.89 69.1412 66.4977C67.5758 56.4103 67.8364 50.5837 65.8358 32.5825L68.7929 34.9308C82.2721 45.8876 103.143 44.2358 108.1 31.8872C110.187 26.6694 108.012 26.2341 102.099 30.7566C93.2289 37.5398 83.3157 32.1478 71.5759 14.0602C61.9233 -0.723788 51.8353 -4.11446 53.1401 16.3215V16.3209Z" fill="#8b1e1e"/>
</svg>