<svg xmlns="http://www.w3.org/2000/svg" width="111" height="112" viewBox="0 0 111 112" fill="none">
<path d="M32.0996 90.4745C29.9938 88.9303 27.3265 89.6322 24.3785 92.4867C20.3073 96.3707 20.1669 97.8681 23.8169 97.9617C27.0926 98.0553 33.9714 91.8316 32.0996 90.4745Z" fill="#b4ff52"/>
<path d="M31.865 82.566C31.865 81.3494 27.5131 80.0859 25.7817 80.8346C22.8804 82.0513 6.54902 94.8731 5.37914 95.3411C2.52465 96.4641 6.92336 98.7571 10.199 97.868C13.1939 97.0257 31.865 83.8763 31.865 82.566Z" fill="#b4ff52"/>
<path d="M18.3884 34.7886C21.898 34.8354 22.8339 33.6187 20.6345 31.7937C16.3762 28.1905 13.0537 26.9738 10.4332 28.0969C7.34479 29.3604 13.6621 34.695 18.3884 34.7886Z" fill="#b4ff52"/>
<path d="M73.0922 39.7489C75.6191 39.7957 80.3454 36.8476 80.0646 35.397C79.5499 32.7764 74.3088 32.7764 71.5011 35.397C68.4595 38.2047 68.9742 39.7021 73.0922 39.7489Z" fill="#b4ff52"/>
<path d="M28.7774 33.4318C33.3633 34.2741 33.0357 32.0279 27.3735 23.9792C16.9382 9.14525 13.4286 5.40167 10.9485 6.43114C7.62608 7.74141 24.0043 32.4959 28.7774 33.4318Z" fill="#b4ff52"/>
<path d="M99.9524 26.3654C97.6594 27.3481 80.5793 38.6724 76.3209 41.9949C75.385 42.7436 78.6139 44.0538 81.0005 43.8667C83.387 43.6795 84.2761 43.2115 93.869 36.8942C99.5312 33.1506 104.772 29.7346 105.474 29.3134C108.843 27.2077 103.977 24.634 99.9524 26.3654Z" fill="#b4ff52"/>
<path d="M81.3281 86.684C78.8012 84.3442 75.2916 83.034 74.3089 84.0635C73.7005 84.6718 75.0108 86.1693 77.3973 87.5263C81.2345 89.7257 83.9954 89.1173 81.3281 86.684Z" fill="#b4ff52"/>
<path d="M74.8231 61.3682C77.35 60.058 77.3032 59.6836 74.4487 56.8759C65.6981 48.3124 58.3981 28.565 56.7602 9.19193C56.1519 2.21951 49.6474 -4.37857 46.1846 12.2336C41.7859 33.1977 31.3974 54.5362 24.5186 56.7355C19.8859 58.233 20.4006 61.3682 25.2673 61.3682C32.4737 61.3682 36.8724 67.8727 39.6801 82.8471C41.5051 92.5804 44.5936 107.648 44.8744 108.444C45.5763 110.316 51.9872 113.357 53.6718 100.91C56.0115 83.315 65.1833 66.2817 74.8231 61.3682ZM66.7276 59.2157C59.0064 64.6907 51.3788 75.3131 49.4135 83.4086C48.9455 85.2804 48.4308 84.9996 48.0564 82.7067C46.2314 71.008 42.3474 63.9887 35.7961 60.2919L33.2692 58.8413C40.0077 51.6817 43.0493 49.108 50.8641 27.1612C51.1916 26.2253 51.2384 26.3657 52.923 32.0278C56.0583 42.7907 59.9891 50.465 65.0429 55.7528C67.5699 58.4669 67.6167 58.6073 66.7276 59.2157Z" fill="#b4ff52"/>
<path d="M65.8859 87.5266C64.5288 88.3222 64.9032 89.0709 68.8808 94.1247C75.8532 102.969 79.55 105.589 81.8429 103.296C82.9192 102.22 82.3577 101.238 77.2571 94.967C70.9397 87.1991 68.834 85.842 65.8859 87.5266Z" fill="#b4ff52"/>
</svg>